<?xml version="1.0" encoding="utf-8"?>
<!-- Generator: Adobe Illustrator 25.0.1, SVG Export Plug-In . SVG Version: 6.00 Build 0)  -->
<svg version="1.1" id="Layer_1" xmlns="http://www.w3.org/2000/svg" xmlns:xlink="http://www.w3.org/1999/xlink" x="0px" y="0px"
	 viewBox="0 0 512 512" style="enable-background:new 0 0 512 512;" xml:space="preserve">
<style type="text/css">
	.st0{fill:#FFFFFF;}
</style>
<path class="st0" d="M402.3,156.4l-8-23.8c-3-9.1-11.5-15.2-21.1-15.2h-66.8V95.6c0-10.9-8.8-19.7-19.7-19.7h-61.2
	c-10.9,0-19.7,8.9-19.7,19.7v21.8h-66.8c-9.6,0-18,6.1-21.1,15.2l-8,23.8c-1.8,5.4-0.9,11.4,2.5,16.1c3.3,4.6,8.8,7.4,14.5,7.4h8.3
	l18.3,226.2c1.4,16.8,15.6,29.9,32.4,29.9H330c16.8,0,31.1-13.2,32.4-29.9l18.3-226.2h4.6c5.7,0,11.1-2.8,14.5-7.4
	C403.2,167.9,404.1,161.8,402.3,156.4z M226.9,97h58.4v20.4h-58.4V97z M341.4,404.4c-0.5,5.9-5.5,10.5-11.4,10.5H185.9
	c-5.9,0-10.9-4.6-11.4-10.5l-18.2-224.5h203.2L341.4,404.4z M131.4,158.8l6.5-19.5c0.1-0.5,0.6-0.8,1-0.8h234.3c0.5,0,0.9,0.3,1,0.8
	l6.5,19.5H131.4z"/>
<path class="st0" d="M307.7,403.7c0.2,0,0.4,0,0.6,0c5.6,0,10.2-4.4,10.5-10l9.9-190.2c0.3-5.8-4.2-10.8-10-11.1
	c-5.8-0.3-10.8,4.2-11.1,10l-9.9,190.2C297.5,398.4,301.9,403.4,307.7,403.7z"/>
<path class="st0" d="M193.8,393.7c0.3,5.6,5,10,10.5,10c0.2,0,0.4,0,0.6,0c5.8-0.3,10.3-5.3,10-11.1l-10.4-190.2
	c-0.3-5.8-5.3-10.3-11.1-10c-5.8,0.3-10.3,5.3-10,11.1L193.8,393.7z"/>
<path class="st0" d="M256.2,403.7c5.8,0,10.6-4.7,10.6-10.6V202.9c0-5.8-4.7-10.6-10.6-10.6c-5.8,0-10.6,4.7-10.6,10.6v190.2
	C245.7,399,250.4,403.7,256.2,403.7z"/>
</svg>
